<svg version="1.1" id="Layer_1" xmlns="http://www.w3.org/2000/svg" xmlns:xlink="http://www.w3.org/1999/xlink" x="0px" y="0px"
	 width="100%" viewBox="0 0 1024 1024" enable-background="new 0 0 1024 1024" xml:space="preserve">
<path fill="#000000" opacity="1.000000" stroke="none" 
	d="
M571.999817,718.291931 
	C518.023193,716.910767 464.536011,717.148682 411.052063,717.444702 
	C394.073486,717.538635 377.095734,718.385254 360.124512,719.060547 
	C338.554779,719.918823 317.652863,717.169617 297.695984,708.481201 
	C288.487244,704.472046 281.054688,698.483154 274.467560,690.873230 
	C258.011353,671.861755 252.726837,649.295654 252.700668,625.046082 
	C252.602112,533.725830 252.618683,442.405365 252.729111,351.085144 
	C252.742172,340.271454 252.065002,329.488983 252.543823,318.639954 
	C254.115433,283.030365 274.961029,249.713974 311.385742,238.185547 
	C327.017181,233.238190 342.723724,231.708542 358.612335,231.967590 
	C403.599396,232.701096 448.688629,230.731262 493.537262,233.307587 
	C528.027954,235.288895 560.103882,226.791275 592.759399,219.370193 
	C610.260193,215.393082 627.510193,210.156738 645.249329,207.424088 
	C663.816223,204.563980 679.280884,210.329407 691.905090,225.047806 
	C704.035828,239.190720 708.446106,256.237762 713.042664,273.366577 
	C716.700012,286.995300 721.087646,300.670685 721.541443,314.764313 
	C721.833618,323.838287 726.193115,330.044830 730.323120,337.178345 
	C739.586731,353.178986 746.108521,370.180237 745.387329,389.207611 
	C745.147644,395.530762 745.534912,401.877258 745.309814,408.201508 
	C745.120850,413.508331 748.646545,412.830170 752.010010,413.051880 
	C755.961121,413.312256 756.780029,411.355438 756.670410,407.893494 
	C755.922119,384.261566 755.236938,360.627319 754.628418,336.991333 
	C754.039612,314.122620 748.907227,292.841888 733.622742,274.949921 
	C728.379028,268.811676 722.028320,263.977875 715.678528,259.110565 
	C713.439087,257.393982 711.204346,255.611450 709.273315,253.569778 
	C707.479126,251.672806 706.688293,248.985107 707.712280,246.617126 
	C708.819336,244.057068 711.600342,243.754410 714.181519,243.795319 
	C727.717407,244.009811 738.848206,249.390488 748.377502,258.939911 
	C767.135559,277.737640 774.661072,300.983521 775.254639,326.770264 
	C775.875549,353.745209 774.003113,380.903168 776.525818,407.669617 
	C778.600525,429.682648 777.458496,451.497314 777.812073,473.380646 
	C778.123840,492.674011 776.373291,511.992523 776.335205,531.301514 
	C776.273621,562.563049 777.138184,593.826294 777.084595,625.087891 
	C777.052979,643.554626 773.799316,661.462036 764.558655,677.890686 
	C754.895752,695.070068 739.916565,705.431152 721.801025,711.949463 
	C717.618347,713.454468 713.279663,713.725342 708.986938,713.360901 
	C692.360718,711.949646 676.140259,714.759583 659.935181,717.766846 
	C656.613159,718.383423 653.302673,718.348389 649.980469,718.348816 
	C624.153625,718.352478 598.326721,718.315796 571.999817,718.291931 
M565.207092,553.538391 
	C552.612915,551.315308 543.002747,543.699280 534.183716,535.324219 
	C515.900757,517.961853 508.425812,496.221619 513.805359,471.710022 
	C519.976318,443.592438 546.643494,413.482239 585.510010,413.750916 
	C607.829895,413.905182 630.146667,413.443756 652.472595,414.501190 
	C674.782471,415.557922 697.110901,414.014191 719.432861,413.752136 
	C722.766724,413.713013 724.127869,412.409363 723.620789,409.279968 
	C721.855225,398.383026 723.513306,387.317413 721.792175,376.403412 
	C715.670654,337.585876 688.203247,319.135651 653.153931,319.681519 
	C640.362854,319.880707 627.515686,320.599396 614.713318,320.882751 
	C587.394165,321.487457 560.052307,321.359955 532.723389,321.118134 
	C517.748718,320.985657 502.752075,319.131439 487.818146,319.631348 
	C468.170654,320.289062 448.513702,320.344543 428.868988,320.857086 
	C395.075684,321.738800 361.215576,322.039764 327.489899,319.170837 
	C308.528381,317.557861 291.394012,310.845459 277.653900,296.539551 
	C274.410645,300.560974 272.626678,305.402649 272.324402,310.867676 
	C271.844421,319.545441 273.122437,328.163452 273.136719,336.821259 
	C273.167755,355.653442 273.185120,374.485748 273.169586,393.317932 
	C273.106415,469.979401 273.018494,546.640869 272.970856,623.302307 
	C272.965668,631.630676 273.211060,639.981445 275.415771,648.071533 
	C281.239960,669.442749 294.010895,684.401733 315.405029,691.667053 
	C326.471558,695.425110 337.867004,696.518433 349.331512,696.577332 
	C379.977966,696.734802 410.606293,695.612793 441.279114,696.425171 
	C486.247894,697.616272 531.247864,696.302368 576.243164,697.278320 
	C600.526611,697.805054 624.863220,696.532288 649.184875,697.033997 
	C670.154480,697.466675 686.689392,688.020020 700.480713,673.145935 
	C714.861328,657.636230 718.967468,638.154785 720.764954,617.958069 
	C722.407288,599.504883 721.124512,580.979919 721.895630,562.506714 
	C722.081116,558.062683 720.299561,556.418030 716.218628,556.423889 
	C714.718872,556.426086 713.219177,556.377563 711.719421,556.377075 
	C687.229187,556.368652 662.743835,556.373474 638.252014,556.907837 
	C621.443604,557.274719 604.607544,556.488037 587.786438,556.105347 
	C580.472473,555.938965 573.156433,555.571777 565.207092,553.538391 
M616.801147,535.546021 
	C621.624512,535.390076 626.459900,534.934998 631.269226,535.128113 
	C656.742676,536.150818 682.224426,535.386719 707.699768,535.668945 
	C726.174011,535.873596 744.631409,533.767456 763.116882,535.346619 
	C766.501709,535.635681 766.884399,533.470276 766.358093,530.741211 
	C764.939148,523.383789 763.922791,515.934692 763.826050,508.468506 
	C763.534790,486.005280 762.983459,463.526306 765.562866,441.125793 
	C766.300354,434.720734 765.740784,434.258759 759.345642,434.318115 
	C729.041382,434.599426 698.746155,435.948425 668.434082,435.210693 
	C650.622864,434.777191 632.808899,435.116516 614.990845,434.527588 
	C600.727173,434.056183 586.181091,432.661407 572.241821,436.535095 
	C558.412598,440.378235 543.995544,444.417053 540.817505,462.295044 
	C537.328979,461.066376 536.301514,463.581482 535.434753,466.175018 
	C532.567139,474.755096 532.873474,483.473572 534.199036,492.281616 
	C537.853455,516.565857 558.784973,534.623413 583.430725,534.738281 
	C594.251160,534.788696 605.083008,534.510803 616.801147,535.546021 
M651.878662,242.204941 
	C656.048340,241.066513 660.211243,239.902527 664.391174,238.803070 
	C665.920715,238.400757 668.128296,238.962448 668.450317,236.762680 
	C668.752197,234.700714 666.998291,233.541977 665.461548,232.523544 
	C659.467957,228.551331 652.797974,228.637054 646.176941,229.877899 
	C630.662842,232.785446 615.297241,236.356506 600.010315,240.334824 
	C567.672058,248.750565 534.957458,255.609406 502.563568,263.842896 
	C457.950470,275.182068 413.372650,286.694244 368.492004,296.963562 
	C366.655853,297.383728 364.639526,297.482483 362.800903,299.504272 
	C373.367676,298.497131 383.268707,300.088989 393.206024,300.347290 
	C413.327423,300.870331 433.578949,301.440582 453.108582,295.287598 
	C481.193665,286.439117 509.764893,279.425720 538.270081,272.159363 
	C575.960388,262.551636 613.621277,252.836945 651.878662,242.204941 
M622.498657,298.725342 
	C633.490112,298.703339 644.491821,298.970093 655.470398,298.583160 
	C667.999634,298.141541 679.921082,300.558716 691.641785,304.663971 
	C693.561462,305.336334 695.278992,307.163239 697.748901,306.235901 
	C698.309509,303.648865 697.528931,301.278046 696.672363,298.965332 
	C692.454712,287.577881 688.527100,276.114563 685.587708,264.303772 
	C683.791687,257.087341 683.246155,256.854126 675.891296,258.845978 
	C655.191101,264.452057 634.551086,270.264771 613.796936,275.689972 
	C588.705627,282.248779 563.477722,288.220062 538.332703,294.539673 
	C534.094971,295.604736 529.379028,295.550476 525.700012,298.664062 
	C557.709167,300.401855 589.603821,299.337952 622.498657,298.725342 
M395.498718,252.386230 
	C379.352203,252.480850 363.215912,252.422073 347.062317,253.060318 
	C331.395599,253.679352 316.950043,257.805420 303.135742,264.790924 
	C300.185120,266.282959 296.963928,267.333771 294.629059,269.895020 
	C292.112610,272.655457 291.015259,279.204376 293.146118,281.924622 
	C295.949005,285.502777 299.086853,288.727509 304.502777,287.179688 
	C310.256805,285.535187 316.051086,283.972229 321.906708,282.752258 
	C358.986511,275.026855 396.312469,268.427673 432.902679,258.479065 
	C436.449707,257.514648 440.373810,257.213013 443.206421,253.404907 
	C427.636902,253.066727 412.067383,252.728546 395.498718,252.386230 
M754.917236,597.703003 
	C756.283020,585.403259 755.444092,573.096985 755.049805,560.790527 
	C754.967041,558.208618 754.566406,556.250305 751.222412,556.272705 
	C748.265442,556.292542 745.831482,556.504883 745.745239,560.263184 
	C745.626892,565.417908 745.428650,570.571350 745.357422,575.726624 
	C745.104492,594.017822 746.008911,612.356384 743.343567,630.550964 
	C741.783508,641.200562 737.498108,651.115417 732.888000,660.572571 
	C729.939453,666.621216 725.913330,672.500427 721.726807,678.108887 
	C716.184814,685.533203 712.201050,694.124634 704.684265,700.104065 
	C708.354492,698.415588 711.979431,696.737671 715.294556,694.583130 
	C722.681152,689.782410 730.142151,684.989014 736.410095,678.750732 
	C746.430176,668.777954 749.620850,655.579651 752.704895,642.436768 
	C756.094116,627.993469 754.200378,613.257751 754.917236,597.703003 
z"/>
<path fill="#000000" opacity="1.000000" stroke="none" 
	d="
M304.856018,560.770508 
	C303.138458,557.536133 302.969849,554.363708 303.025940,551.216797 
	C303.129700,545.399414 303.405853,539.584473 303.654633,533.770508 
	C303.884430,528.399841 307.328094,524.743896 312.198517,524.621399 
	C318.142914,524.471863 323.087921,528.365479 323.268219,533.781128 
	C323.489594,540.431519 323.348328,547.095093 323.309967,553.752625 
	C323.279938,558.961487 320.072998,564.818237 316.250122,565.950623 
	C311.337250,567.405884 308.077850,564.402527 304.856018,560.770508 
z"/>
<path fill="#000000" opacity="1.000000" stroke="none" 
	d="
M322.950317,361.820038 
	C323.629364,370.050262 323.421021,377.841614 322.408325,385.623169 
	C321.886597,389.632294 318.105530,393.903564 314.645142,394.079987 
	C309.624237,394.335968 304.100708,390.330383 303.838593,385.654633 
	C303.448212,378.690796 303.331818,371.691162 303.542908,364.720215 
	C303.727478,358.624939 307.003967,354.767242 311.927399,353.842407 
	C316.385468,353.005005 320.168610,355.632690 322.950317,361.820038 
z"/>
<path fill="#000000" opacity="1.000000" stroke="none" 
	d="
M307.908844,624.315308 
	C304.880219,621.362854 303.470398,618.063904 303.482574,614.245605 
	C303.503174,607.779785 303.451202,601.304260 303.796478,594.852417 
	C304.032959,590.433594 308.560242,586.879272 313.175934,586.914917 
	C318.075684,586.952759 323.059814,590.917603 323.209473,595.530823 
	C323.451447,602.990417 323.513275,610.480774 323.109772,617.928833 
	C322.752319,624.526794 315.784088,627.445862 307.908844,624.315308 
z"/>
<path fill="#000000" opacity="1.000000" stroke="none" 
	d="
M317.209351,448.732788 
	C308.510254,449.890991 305.619537,447.714813 304.296936,439.627136 
	C303.380066,434.020813 303.543335,428.372009 303.780151,422.756683 
	C304.019104,417.091827 308.686462,412.640808 313.609589,412.785126 
	C319.035553,412.944183 323.037964,417.401611 323.362213,423.368469 
	C323.724243,430.030792 322.493347,436.578827 322.191742,443.189148 
	C322.051117,446.270477 319.531830,447.119324 317.209351,448.732788 
z"/>
<path fill="#000000" opacity="1.000000" stroke="none" 
	d="
M310.714722,502.005615 
	C305.500000,499.816833 303.169678,496.345947 303.538086,490.942657 
	C303.831146,486.644379 303.552002,482.310364 303.682617,477.996918 
	C303.846405,472.586884 307.554535,468.838776 312.696991,468.685272 
	C318.488342,468.512482 323.002411,472.114288 323.228333,477.656494 
	C323.443634,482.939697 323.649231,488.244171 322.602448,493.533081 
	C321.043091,501.411926 319.471313,502.718018 310.714722,502.005615 
z"/>
<path fill="#000000" opacity="1.000000" stroke="none" 
	d="
M576.144287,462.740082 
	C591.620972,458.075836 605.987244,467.278900 608.025269,482.756836 
	C608.367126,485.353424 607.483215,487.684814 606.781250,490.062347 
	C606.453674,491.171783 605.480835,492.214172 605.490417,493.280792 
	C605.596497,505.153351 595.692993,506.568481 587.957520,508.808350 
	C579.464844,511.267426 571.868530,507.706146 566.677490,500.264374 
	C561.131348,492.313416 559.581482,483.714905 564.157288,474.852966 
	C566.761597,469.809265 570.322937,465.328003 576.144287,462.740082 
M587.427612,481.236237 
	C583.176697,479.660156 580.437988,481.921600 579.184204,485.419708 
	C578.036987,488.620544 580.695740,490.596924 583.302429,491.933777 
	C586.899109,493.778320 588.910950,491.398529 590.615967,488.783905 
	C592.854858,485.350586 590.936584,483.224976 587.427612,481.236237 
z"/>
</svg>